<svg width="24" height="24" viewBox="0 0 24 24" fill="none" xmlns="http://www.w3.org/2000/svg">
<path d="M21.9936 21.9997V21.9988H21.9986V14.6638C21.9986 11.0755 21.2261 8.31128 17.0311 8.31128C15.0144 8.31128 13.6611 9.41795 13.1086 10.4671H13.0503V8.64628H9.07275V21.9988H13.2144V15.3871C13.2144 13.6463 13.5444 11.963 15.7003 11.963C17.8245 11.963 17.8561 13.9496 17.8561 15.4988V21.9997H21.9936Z" fill="#212224"/>
<path d="M2.33203 8.64746H6.47872V22H2.33203V8.64746Z" fill="#212224"/>
<path d="M4.40168 2C3.07584 2 2 3.07584 2 4.40168C2 5.72752 3.07584 6.82586 4.40168 6.82586C5.72752 6.82586 6.80336 5.72752 6.80336 4.40168C6.80253 3.07584 5.72669 2 4.40168 2V2Z" fill="#212224"/>
</svg>
