<svg width="20" height="20" viewBox="0 0 20 20" fill="none" xmlns="http://www.w3.org/2000/svg">
<path d="M7.80759 5.2123H15.0316L14.299 4.12362C14.2013 3.9796 14.1447 3.81168 14.1352 3.63789C14.1257 3.46411 14.1638 3.29103 14.2453 3.13725C14.3268 2.98347 14.4487 2.8548 14.5978 2.76507C14.7469 2.67533 14.9177 2.62792 15.0917 2.62793H15.0937C15.2503 2.62792 15.4048 2.66312 15.5459 2.73094C15.687 2.79875 15.811 2.89743 15.9088 3.01968L18.1629 5.83768C18.2338 5.92634 18.2725 6.03649 18.2725 6.15002C18.2725 6.26356 18.2338 6.37371 18.1629 6.46237L15.9086 9.28018C15.8108 9.40244 15.6868 9.50113 15.5457 9.56896C15.4046 9.63678 15.25 9.672 15.0935 9.67199H15.0917C14.9177 9.67199 14.7469 9.62458 14.5978 9.53485C14.4487 9.44512 14.3269 9.31646 14.2454 9.16269C14.1639 9.00892 14.1258 8.83585 14.1352 8.66208C14.1447 8.4883 14.2013 8.32039 14.299 8.17637L15.0318 7.08731H7.80759C6.69235 7.08731 5.62279 7.53033 4.8342 8.31892C4.04561 9.10751 3.60259 10.1771 3.60259 11.2923C3.60259 12.4075 4.04561 13.4771 4.8342 14.2657C5.62279 15.0543 6.69235 15.4973 7.80759 15.4973H15.8523C16.1009 15.4973 16.3394 15.5961 16.5152 15.7719C16.691 15.9477 16.7898 16.1862 16.7898 16.4348C16.7898 16.6834 16.691 16.9219 16.5152 17.0977C16.3394 17.2735 16.1009 17.3723 15.8523 17.3723H7.80759C6.19507 17.3723 4.6486 16.7317 3.50838 15.5915C2.36815 14.4513 1.72759 12.9048 1.72759 11.2923C1.72759 9.67979 2.36815 8.13332 3.50838 6.9931C4.6486 5.85287 6.19507 5.2123 7.80759 5.2123Z" fill="#6E6D79"/>
</svg>
