<svg width="17" height="16" viewBox="0 0 17 16" fill="none" xmlns="http://www.w3.org/2000/svg">
<path d="M14.9576 13.3516L10.8998 9.29375C11.5295 8.47969 11.8701 7.48438 11.8701 6.4375C11.8701 5.18438 11.3811 4.00937 10.4967 3.12344C9.6123 2.2375 8.43418 1.75 7.18262 1.75C5.93105 1.75 4.75293 2.23906 3.86855 3.12344C2.98262 4.00781 2.49512 5.18438 2.49512 6.4375C2.49512 7.68906 2.98418 8.86719 3.86855 9.75156C4.75293 10.6375 5.92949 11.125 7.18262 11.125C8.22949 11.125 9.22324 10.7844 10.0373 10.1562L14.0951 14.2125C14.107 14.2244 14.1211 14.2338 14.1367 14.2403C14.1522 14.2467 14.1689 14.2501 14.1857 14.2501C14.2026 14.2501 14.2192 14.2467 14.2348 14.2403C14.2503 14.2338 14.2645 14.2244 14.2764 14.2125L14.9576 13.5328C14.9695 13.5209 14.979 13.5068 14.9854 13.4912C14.9919 13.4757 14.9952 13.459 14.9952 13.4422C14.9952 13.4254 14.9919 13.4087 14.9854 13.3931C14.979 13.3776 14.9695 13.3635 14.9576 13.3516ZM9.65762 8.9125C8.99512 9.57344 8.11699 9.9375 7.18262 9.9375C6.24824 9.9375 5.37012 9.57344 4.70762 8.9125C4.04668 8.25 3.68262 7.37187 3.68262 6.4375C3.68262 5.50312 4.04668 4.62344 4.70762 3.9625C5.37012 3.30156 6.24824 2.9375 7.18262 2.9375C8.11699 2.9375 8.99668 3.3 9.65762 3.9625C10.3186 4.625 10.6826 5.50312 10.6826 6.4375C10.6826 7.37187 10.3186 8.25156 9.65762 8.9125Z" fill="#6E6D79"/>
</svg>
