<svg width="12" height="13" viewBox="0 0 12 13" fill="none" xmlns="http://www.w3.org/2000/svg">
<path d="M8.8934 4.69272C9.76895 5.29244 10.8415 5.6453 12 5.6453V3.50925C11.7808 3.50929 11.5621 3.48739 11.3476 3.44384V5.12522C10.1892 5.12522 9.11678 4.77236 8.24099 4.17268V8.53173C8.24099 10.7123 6.39616 12.48 4.12057 12.48C3.2715 12.48 2.48232 12.234 1.82675 11.8122C2.57497 12.5452 3.61843 13 4.77284 13C7.04856 13 8.89349 11.2324 8.89349 9.05168L8.8934 4.69272ZM9.69821 2.53771C9.25076 2.06929 8.95697 1.46395 8.8934 0.79472V0.519979H8.27515C8.43077 1.37057 8.96157 2.09726 9.69821 2.53771ZM3.26605 10.1388C3.01605 9.82473 2.88096 9.4405 2.88156 9.04543C2.88156 8.0481 3.72538 7.23945 4.76642 7.23945C4.96043 7.2394 5.15328 7.26787 5.33818 7.32408V5.1403C5.1221 5.11192 4.90403 5.09988 4.68605 5.10429V6.80405C4.50102 6.74783 4.30807 6.71928 4.11401 6.71946C3.07297 6.71946 2.2292 7.52802 2.2292 8.52548C2.2292 9.23076 2.65097 9.84137 3.26605 10.1388Z" fill="#6E6D79"/>
<path d="M8.24099 4.17268C9.11678 4.77236 10.1892 5.12522 11.3476 5.12522V3.44384C10.701 3.31187 10.1286 2.98805 9.69821 2.53771C8.96157 2.09726 8.43077 1.37057 8.27515 0.519979H6.65115V9.05159C6.64748 10.0462 5.8051 10.8516 4.7663 10.8516C4.15414 10.8516 3.61048 10.5719 3.26605 10.1388C2.65097 9.84137 2.2292 9.23076 2.2292 8.52548C2.2292 7.52802 3.07297 6.71946 4.11401 6.71946C4.31347 6.71946 4.50572 6.74921 4.68605 6.80405V5.10429C2.45044 5.14855 0.652347 6.89894 0.652347 9.05163C0.652347 10.1262 1.10007 11.1004 1.82675 11.8122C2.48232 12.234 3.2715 12.48 4.12057 12.48C6.39616 12.48 8.24099 10.7123 8.24099 8.53173V4.17268Z" fill="#6E6D79"/>
<path d="M11.3476 3.44384L11.3476 2.98918C10.7645 2.99003 10.1929 2.8336 9.69821 2.53771C10.1361 2.99711 10.7128 3.31388 11.3476 3.44384ZM8.27515 0.519979C8.2603 0.43869 8.24889 0.356878 8.24097 0.274741V0H5.99871V8.5317C5.99513 9.52617 5.1528 10.3315 4.1139 10.3315C3.8089 10.3315 3.52108 10.2621 3.26605 10.1388C3.61048 10.5719 4.15414 10.8516 4.7663 10.8516C5.8051 10.8516 6.64748 10.0462 6.65115 9.05159V0.519979H8.27515ZM4.68605 5.10429L4.68603 4.62036C4.49867 4.59582 4.30978 4.58351 4.12065 4.5836C1.84483 4.58355 0 6.35126 0 8.5317C0 9.89871 0.724974 11.1035 1.82675 11.8122C1.10007 11.1004 0.652347 10.1262 0.652347 9.05163C0.652347 6.89894 2.45044 5.14855 4.68605 5.10429Z" fill="#6E6D79"/>
</svg>
