<svg width="24" height="24" viewBox="0 0 24 24" fill="none" xmlns="http://www.w3.org/2000/svg">
<path d="M21.7501 5.96029C21.033 6.26966 20.2525 6.49232 19.4486 6.57904C20.2832 6.08318 20.9082 5.29982 21.2064 4.37591C20.4232 4.84183 19.5652 5.16853 18.6705 5.34154C18.2965 4.94176 17.8442 4.62327 17.3418 4.40593C16.8394 4.18859 16.2976 4.07705 15.7501 4.07826C13.5353 4.07826 11.7541 5.87357 11.7541 8.07669C11.7541 8.38607 11.7916 8.69544 11.8525 8.9931C8.53608 8.81966 5.57827 7.23529 3.61187 4.80951C3.25357 5.4215 3.0658 6.11832 3.06811 6.82748C3.06811 8.21498 3.77358 9.43841 4.84936 10.1579C4.21539 10.133 3.59626 9.95872 3.04233 9.64935V9.69857C3.04233 11.6415 4.41577 13.2517 6.24624 13.622C5.90255 13.7113 5.54899 13.757 5.1939 13.7579C4.93374 13.7579 4.68765 13.7322 4.43921 13.697C4.94546 15.2814 6.41968 16.4322 8.17515 16.4697C6.80171 17.5454 5.0814 18.1783 3.21343 18.1783C2.87827 18.1783 2.5689 18.1665 2.2478 18.129C4.01968 19.2658 6.12202 19.922 8.38608 19.922C15.7361 19.922 19.758 13.8329 19.758 8.54779C19.758 8.37435 19.758 8.20091 19.7462 8.02748C20.5244 7.45794 21.2064 6.75248 21.7501 5.96029Z" fill="#6E6D79"/>
</svg>
