<svg width="20" height="20" viewBox="0 0 20 20" fill="none" xmlns="http://www.w3.org/2000/svg">
<path d="M12.1924 5.2123H4.96835L5.70098 4.12362C5.79869 3.9796 5.85533 3.81168 5.86479 3.63789C5.87426 3.46411 5.83619 3.29103 5.75469 3.13725C5.67319 2.98347 5.55133 2.8548 5.40221 2.76507C5.25309 2.67533 5.08233 2.62792 4.90829 2.62793H4.90629C4.74974 2.62792 4.59519 2.66312 4.45409 2.73094C4.31299 2.79875 4.18896 2.89743 4.09116 3.01968L1.8371 5.83768C1.76618 5.92634 1.72754 6.03649 1.72754 6.15002C1.72754 6.26356 1.76618 6.37371 1.8371 6.46237L4.09141 9.28018C4.1892 9.40244 4.31324 9.50113 4.45433 9.56896C4.59543 9.63678 4.74998 9.672 4.90654 9.67199H4.90829C5.08232 9.67199 5.25306 9.62458 5.40218 9.53485C5.55129 9.44512 5.67314 9.31646 5.75464 9.16269C5.83614 9.00892 5.87421 8.83585 5.86475 8.66208C5.8553 8.4883 5.79868 8.32039 5.70098 8.17637L4.96816 7.08731H12.1924C13.3076 7.08731 14.3772 7.53033 15.1658 8.31892C15.9544 9.10751 16.3974 10.1771 16.3974 11.2923C16.3974 12.4075 15.9544 13.4771 15.1658 14.2657C14.3772 15.0543 13.3076 15.4973 12.1924 15.4973H4.14773C3.89909 15.4973 3.66063 15.5961 3.48481 15.7719C3.309 15.9477 3.21023 16.1862 3.21023 16.4348C3.21023 16.6834 3.309 16.9219 3.48481 17.0977C3.66063 17.2735 3.89909 17.3723 4.14773 17.3723H12.1924C13.8049 17.3723 15.3514 16.7317 16.4916 15.5915C17.6318 14.4513 18.2724 12.9048 18.2724 11.2923C18.2724 9.67979 17.6318 8.13332 16.4916 6.9931C15.3514 5.85287 13.8049 5.2123 12.1924 5.2123Z" fill="#6E6D79"/>
</svg>
