<svg width="36" height="36" viewBox="0 0 36 36" fill="none" xmlns="http://www.w3.org/2000/svg">
<path d="M19.8214 18L29.0499 6.99961C29.2046 6.8168 29.0745 6.53906 28.8354 6.53906H26.03C25.8647 6.53906 25.7065 6.61289 25.5975 6.73945L17.9862 15.8133L10.3749 6.73945C10.2694 6.61289 10.1112 6.53906 9.94247 6.53906H7.137C6.89794 6.53906 6.76786 6.8168 6.92255 6.99961L16.1511 18L6.92255 29.0004C6.8879 29.0411 6.86567 29.091 6.8585 29.144C6.85132 29.197 6.85951 29.2509 6.88209 29.2994C6.90467 29.3479 6.94069 29.3889 6.98588 29.4175C7.03106 29.4462 7.08351 29.4612 7.137 29.4609H9.94247C10.1077 29.4609 10.2659 29.3871 10.3749 29.2605L17.9862 20.1867L25.5975 29.2605C25.703 29.3871 25.8612 29.4609 26.03 29.4609H28.8354C29.0745 29.4609 29.2046 29.1832 29.0499 29.0004L19.8214 18Z" fill="#868690"/>
</svg>
